#!OML:ASF X:\für Bonn\!DataBase\2005_08_12_Daniel\c3d\Daniel.ASF
:FULLY-SPECIFIED
:DEGREES
91
root 34.593 20.4211 1.69353 -13.3162 78.7724 -366.844
lowerback 11.0836 1.09246 5.55279
upperback -1.14383 1.99077 -3.3944
thorax -7.14841 0.689619 -7.12076
lowerneck 8.27441 3.58872 -4.69289
upperneck 22.9432 5.74841 1.33
head 5.47703 2.9575 1.37194
rclavicle -2.49475e-014 -2.22639e-014
rhumerus 9.61173 23.9645 -75.1284
rradius 113.854
rwrist -11.9626
rhand -32.1117 26.2171
rfingers 7.12502
rthumb -5.35662 -3.69515
lclavicle -2.49475e-014 -2.22639e-014
lhumerus 17.4487 -24.4695 56.9685
lradius 113.569
lwrist 30.8738
lhand -15.3359 -14.2155
lfingers 7.12502
lthumb 10.8408 15.4847
rfemur -3.0937 3.01934 26.0968
rtibia 34.9602
rfoot 12.525 -1.12615
rtoes -17.3715
lfemur -11.964 1.83143 -17.2803
ltibia 48.3681
lfoot 6.27456 -6.09752
ltoes -19.6058
92
root 34.7299 20.3982 1.69605 -13.3747 78.7145 -366.647
lowerback 11.3262 1.07105 5.58928
upperback -1.15779 1.9804 -3.36232
thorax -7.30366 0.67607 -7.11794
lowerneck 8.67468 3.56238 -4.50816
upperneck 23.0903 5.75889 1.1664
head 5.47223 2.97757 1.28379
rclavicle -7.05686e-015 6.36111e-015
rhumerus 9.23424 23.9597 -75.2979
rradius 114.147
rwrist -11.9728
rhand -32.0437 26.3933
rfingers 7.12502
rthumb -5.29092 -3.52068
lclavicle -7.05686e-015 6.36111e-015
lhumerus 17.157 -24.844 57.4489
lradius 113.287
lwrist 30.404
lhand -14.8836 -13.6395
lfingers 7.12502
lthumb 11.277 16.0373
rfemur -3.49897 2.95636 26.1438
rtibia 34.3756
rfoot 12.1028 -1.49863
rtoes -17.9785
lfemur -12.1908 1.78256 -17.217
ltibia 47.7383
lfoot 5.41076 -5.67585
ltoes -19.1996
93
root 34.8662 20.3635 1.69825 -13.4061 78.6234 -366.429
lowerback 11.576 1.05681 5.6257
upperback -1.17363 1.97991 -3.33677
thorax -7.46332 0.666942 -7.12424
lowerneck 9.10756 3.53135 -4.27962
upperneck 23.151 5.76552 0.954649
head 5.43768 2.99679 1.17017
rclavicle 2.1916e-014 -3.18055e-015
rhumerus 8.75888 23.9782 -75.5878
rradius 114.336
rwrist -11.9185
rhand -31.929 26.6195
rfingers 7.12502
rthumb -5.1802 -3.29722
lclavicle 2.1916e-014 -3.18055e-015
lhumerus 16.7861 -25.2784 57.9068
lradius 113.015
lwrist 30.0335
lhand -14.618 -13.1999
lfingers 7.12502
lthumb 11.5332 16.4628
rfemur -3.88063 3.01622 26.1809
rtibia 33.6814
rfoot 11.6133 -1.96234
rtoes -18.2396
lfemur -12.487 1.72422 -17.1292
ltibia 47.1684
lfoot 4.66982 -5.2091
ltoes -18.6944
94
root 35.0028 20.3219 1.69969 -13.1971 78.5301 -365.971
lowerback 11.8097 1.05345 5.61906
upperback -1.17688 1.98792 -3.30248
thorax -7.6004 0.665385 -7.09623
lowerneck 9.44267 3.4943 -4.08793
upperneck 23.247 5.77264 0.723443
head 5.42973 3.01125 1.05982
rclavicle -1.73937e-014 7.15625e-015
rhumerus 8.2412 24.0153 -75.8645
rradius 114.458
rwrist -11.9187
rhand -31.7253 26.9716
rfingers 7.12502
rthumb -4.98354 -2.94979
lclavicle -1.73937e-014 7.15625e-015
lhumerus 16.4535 -25.7604 58.2986
lradius 112.671
lwrist 29.7295
lhand -14.6023 -12.9429
lfingers 7.12502
lthumb 11.5483 16.719
rfemur -4.2358 3.15493 26.1388
rtibia 32.9208
rfoot 11.0523 -2.47875
rtoes -18.1375
lfemur -12.8415 1.60491 -17.0812
ltibia 46.6304
lfoot 4.14047 -4.76743
ltoes -17.739
95
root 35.1393 20.2721 1.69935 -12.9559 78.4163 -365.449
lowerback 12.0907 1.04083 5.6247
upperback -1.16598 1.98663 -3.2854
thorax -7.74981 0.658314 -7.0945
lowerneck 9.64571 3.45452 -3.8485
upperneck 23.3834 5.78034 0.510078
head 5.45546 3.02839 0.951219
rclavicle -1.8487e-014 -5.56597e-015
rhumerus 7.68504 24.1406 -76.2276
rradius 114.44
rwrist -11.7701
rhand -31.5621 27.3487
rfingers 7.12502
rthumb -4.82594 -2.57629
lclavicle -1.8487e-014 -5.56597e-015
lhumerus 16.0846 -26.2416 58.5696
lradius 112.315
lwrist 29.5826
lhand -14.7242 -12.738
lfingers 7.12502
lthumb 11.4307 16.9304
rfemur -4.54244 3.32871 26.0704
rtibia 32.0902
rfoot 10.5625 -3.08693
rtoes -17.5207
lfemur -13.1788 1.43968 -17.0516
ltibia 46.109
lfoot 3.73123 -4.33835
ltoes -16.7613
96
root 35.2751 20.21 1.69788 -12.6088 78.2817 -364.822
lowerback 12.3733 1.03799 5.62082
upperback -1.15666 1.99679 -3.2751
thorax -7.9001 0.657031 -7.09694
lowerneck 9.79685 3.40073 -3.56833
upperneck 23.5132 5.77866 0.255846
head 5.4895 3.04112 0.823826
rclavicle 5.66536e-014 -4.13472e-014
rhumerus 7.07744 24.2928 -76.6258
rradius 114.381
rwrist -11.682
rhand -31.4008 27.5432
rfingers 7.12502
rthumb -4.67015 -2.38532
lclavicle 5.66536e-014 -4.13472e-014
lhumerus 15.64 -26.7733 58.7978
lradius 111.925
lwrist 29.6099
lhand -14.8944 -12.7184
lfingers 7.12502
lthumb 11.2666 16.959
rfemur -4.88718 3.51431 25.9609
rtibia 31.2397
rfoot 10.1619 -3.75458
rtoes -16.6099
lfemur -13.5181 1.25169 -17.0349
ltibia 45.6034
lfoot 3.34905 -3.97059
ltoes -16.4983
97
root 35.4123 20.139 1.69475 -12.2494 78.1115 -364.162
lowerback 12.6521 1.03988 5.64188
upperback -1.11979 2.01686 -3.26653
thorax -8.01585 0.661873 -7.11635
lowerneck 9.82315 3.35034 -3.29559
upperneck 23.67 5.78444 0.00427844
head 5.55091 3.05458 0.702028
rclavicle -6.55989e-015 1.98785e-014
rhumerus 6.52188 24.5162 -76.9868
rradius 114.152
rwrist -11.5162
rhand -31.3233 27.6357
rfingers 7.12502
rthumb -4.59536 -2.29449
lclavicle -6.55989e-015 1.98785e-014
lhumerus 15.1878 -27.2944 58.9882
lradius 111.487
lwrist 29.6461
lhand -15.0971 -12.71
lfingers 7.12502
lthumb 11.0711 16.978
rfemur -5.22152 3.77064 25.8399
rtibia 30.4305
rfoot 9.72959 -4.50643
rtoes -15.683
lfemur -13.8307 0.982875 -17.0219
ltibia 45.0953
lfoot 2.98379 -3.55137
ltoes -16.713
98
root 35.55 20.0562 1.69126 -11.7056 77.9292 -363.302
lowerback 12.924 1.03988 5.59083
upperback -1.06929 2.02396 -3.24443
thorax -8.11733 0.665053 -7.07602
lowerneck 9.82252 3.32022 -3.05956
upperneck 23.7953 5.80621 -0.214294
head 5.60419 3.07354 0.596714
rclavicle 1.53064e-014 -2.3059e-014
rhumerus 5.96072 24.8728 -77.3483
rradius 113.784
rwrist -11.2553
rhand -31.3345 27.5974
rfingers 7.12502
rthumb -4.60616 -2.33254
lclavicle 1.53064e-014 -2.3059e-014
lhumerus 14.5699 -27.8161 59.3151
lradius 111.036
lwrist 29.6774
lhand -15.3043 -12.8528
lfingers 7.12502
lthumb 10.8712 16.8458
rfemur -5.56573 4.05905 25.6653
rtibia 29.7138
rfoot 9.16333 -5.25543
rtoes -14.8409
lfemur -14.141 0.728482 -17.0399
ltibia 44.6028
lfoot 2.62319 -3.24037
ltoes -17.3902
99
root 35.686 19.9506 1.68589 -11.217 77.7285 -362.474
lowerback 13.2296 1.04854 5.58211
upperback -1.0117 2.04958 -3.2414
thorax -8.22541 0.67489 -7.08626
lowerneck 9.87237 3.27318 -2.75349
upperneck 23.8506 5.80436 -0.454614
head 5.62939 3.086 0.469646
rclavicle 2.15681e-014 1.19271e-014
rhumerus 5.38609 25.262 -77.7198
rradius 113.286
rwrist -11.0593
rhand -31.3859 27.4483
rfingers 7.12502
rthumb -4.65581 -2.48054
lclavicle 2.15681e-014 1.19271e-014
lhumerus 13.815 -28.3789 59.6816
lradius 110.673
lwrist 29.625
lhand -15.4762 -12.8879
lfingers 7.12502
lthumb 10.7055 16.8193
rfemur -5.93071 4.39249 25.4741
rtibia 29.0867
rfoot 8.43839 -6.0261
rtoes -14.0054
lfemur -14.3551 0.425181 -17.0613
ltibia 44.1024
lfoot 2.21314 -2.96269
ltoes -18.0999
100
root 35.8196 19.8298 1.67962 -10.8217 77.5125 -361.705
lowerback 13.593 1.05064 5.55348
upperback -0.947779 2.06868 -3.2004
thorax -8.36229 0.6821 -7.04496
lowerneck 9.96886 3.25495 -2.55914
upperneck 23.8285 5.81427 -0.620361
head 5.61721 3.09941 0.382156
rclavicle 2.35063e-014 -2.46493e-014
rhumerus 4.83931 25.7169 -78.0603
rradius 112.646
rwrist -10.9161
rhand -31.4274 27.2454
rfingers 7.12502
rthumb -4.69585 -2.68251
lclavicle 2.35063e-014 -2.46493e-014
lhumerus 12.8846 -28.9119 60.264
lradius 110.365
lwrist 29.4073
lhand -15.5339 -12.9237
lfingers 7.12502
lthumb 10.6498 16.7864
rfemur -6.30798 4.80208 25.291
rtibia 28.5238
rfoot 7.63544 -6.92009
rtoes -13.1514
lfemur -14.511 0.143284 -17.0573
ltibia 43.6207
lfoot 1.82255 -2.84559
ltoes -18.674
101
root 35.9533 19.7017 1.67309 -10.4736 77.293 -360.911
lowerback 13.984 1.04624 5.51182
upperback -0.824493 2.07999 -3.13945
thorax -8.45215 0.690747 -6.97175
lowerneck 10.0885 3.24494 -2.40931
upperneck 23.6945 5.82961 -0.835794
head 5.56591 3.10841 0.283711
rclavicle -7.15625e-015 -2.54444e-014
rhumerus 4.3599 26.2469 -78.2934
rradius 111.92
rwrist -10.8888
rhand -31.5353 27.0061
rfingers 7.12502
rthumb -4.80005 -2.91952
lclavicle -7.15625e-015 -2.54444e-014
lhumerus 11.8624 -29.3858 60.9577
lradius 110.144
lwrist 29.0257
lhand -15.5519 -12.7799
lfingers 7.12502
lthumb 10.6324 16.9311
rfemur -6.61772 5.1884 25.0894
rtibia 27.9845
rfoot 6.77328 -7.91397
rtoes -12.5432
lfemur -14.5954 -0.209716 -17.0533
ltibia 43.1531
lfoot 1.42141 -2.73543
ltoes -18.7899
102
root 36.0869 19.5652 1.66559 -10.1235 77.0531 -360.024
lowerback 14.4666 1.05431 5.45513
upperback -0.702928 2.10971 -3.08249
thorax -8.59316 0.706648 -6.90313
lowerneck 10.3893 3.24564 -2.33311
upperneck 23.4649 5.82839 -0.950113
head 5.45118 3.1126 0.223163
rclavicle 2.67365e-014 -1.51076e-014
rhumerus 3.74425 26.7804 -78.5892
rradius 111.152
rwrist -10.9742
rhand -31.5883 26.7453
rfingers 7.12502
rthumb -4.85124 -3.17913
lclavicle 2.67365e-014 -1.51076e-014
lhumerus 10.6681 -29.8874 61.8451
lradius 109.936
lwrist 28.5408
lhand -15.4565 -12.6408
lfingers 7.12502
lthumb 10.7245 17.0654
rfemur -6.79193 5.59243 24.8697
rtibia 27.3961
rfoot 6.07533 -9.10473
rtoes -13.2789
lfemur -14.582 -0.573128 -17.0655
ltibia 42.7084
lfoot 1.01197 -2.64895
ltoes -18.6649
